<?xml version="1.0" encoding="utf-8"?>
<!-- Generator: Adobe Illustrator 19.2.1, SVG Export Plug-In . SVG Version: 6.00 Build 0)  -->
<svg version="1.1" id="Capa_1" xmlns="http://www.w3.org/2000/svg" xmlns:xlink="http://www.w3.org/1999/xlink" x="0px" y="0px"
	 width="28px" height="36px" viewBox="0 0 28 36" style="enable-background:new 0 0 28 36;" xml:space="preserve">
<style type="text/css">
	.st0{fill:#008860;}
	.st1{fill:#EFB801;}
</style>
<g>
	<path class="st0" d="M9.2,36c0,0,14.5,0,15.8,0c0,0,2.9,0,2.9-2.9c0-1.2,0-2,0-2H11.8L9.2,36z"/>
	<path class="st0" d="M24.2,8l-10,18.8l13.8,0c0,0,0-14.8,0-16C28,8,26.1,8,25.4,8C24.7,8,24.2,8,24.2,8z"/>
	<path class="st1" d="M15.3,19.5c0,0,6.3-9.7,6.3-13.2S18.7,0,15.3,0S9,2.8,9,6.3C9,9.7,15.3,19.5,15.3,19.5z M15.3,2.7
		c1.9,0,3.4,1.5,3.4,3.4c0,1.9-1.5,3.4-3.4,3.4S11.9,8,11.9,6.1C11.9,4.3,13.4,2.7,15.3,2.7z"/>
	<g>
		<path class="st0" d="M6.5,8c0,0-2.7,0-3.3,0C0,8,0,11.1,0,11.1c0,1.3,0,20.4,0,21.7C0,36,2.5,36,2.5,36c1,0,1.2,0,1.2,0l8.7-16.3
			L6.5,8z"/>
	</g>
</g>
</svg>
