<?xml version="1.0" encoding="utf-8"?>
<!-- Generator: Adobe Illustrator 19.2.1, SVG Export Plug-In . SVG Version: 6.00 Build 0)  -->
<svg version="1.1" id="Capa_1" xmlns="http://www.w3.org/2000/svg" xmlns:xlink="http://www.w3.org/1999/xlink" x="0px" y="0px"
	 width="144px" height="42px" viewBox="0 0 144 42" style="enable-background:new 0 0 144 42;" xml:space="preserve">
<style type="text/css">
	.st0{fill:#E0B72B;}
	.st1{fill:#FFFFFF;}
	.st2{fill:#008860;}
</style>
<g>
	<polygon class="st0" points="123.9,41 127.6,33.7 23.8,33.7 20.1,41 123.9,41 	"/>
	<path class="st1" d="M82.6,35.8l0.3-0.2l0.2-0.3L82.9,35c-0.1-0.1-0.2-0.1-0.3-0.1c-0.1,0-0.2,0-0.3,0.1l-0.2,0.3l0.2,0.3
		C82.3,35.7,82.5,35.8,82.6,35.8z M68.7,34.9c-0.4,0.1-0.7,0.3-1,0.5l-0.6,0.7l-0.2,0.9c0,0.6,0.2,1.1,0.6,1.4
		c0.5,0.4,1,0.6,1.6,0.6l0.7-0.1l0.7-0.2l0.2-1l-0.7,0.4l-0.8,0.2c-0.4,0-0.7-0.1-1-0.3L68,37.1c0-0.5,0.2-0.9,0.6-1.2
		c0.5-0.3,1-0.5,1.6-0.5l1.1,0.1l0.1-0.8l-1.2-0.1L68.7,34.9z M80.7,35.5h-0.9l-0.1,0.6H79l-0.1,0.7h0.7L79.3,38v0.2
		c0,0.4,0.1,0.6,0.2,0.7l0.8,0.2l0.4,0l0.4-0.1v-0.8l-0.3,0.1l-0.2,0l-0.2-0.1L80.3,38v-0.1l0.2-1h0.7l0.1-0.7h-0.7L80.7,35.5z
		 M73.4,36.1c-0.5,0-1,0.2-1.3,0.5c-0.4,0.3-0.5,0.7-0.5,1.1c0,0.4,0.1,0.7,0.4,1c0.2,0.2,0.6,0.4,1.1,0.4c0.5,0,1-0.2,1.3-0.5
		c0.4-0.4,0.5-0.7,0.5-1.2c0-0.4-0.2-0.7-0.5-1C74.2,36.2,73.9,36.1,73.4,36.1z M73.7,38.1c-0.2,0.2-0.4,0.3-0.6,0.3l-0.5-0.2
		l-0.2-0.5l0.2-0.7c0.2-0.2,0.4-0.3,0.6-0.3c0.2,0,0.3,0.1,0.5,0.2l0.2,0.5C74,37.8,73.9,38,73.7,38.1z M83.9,36.4
		c-0.1,0-0.2,0.2-0.3,0.4l-0.2,0.4l0.2,0.5l0.4,0.4c-0.2,0-0.3,0.1-0.5,0.2l-0.2,0.4l0.1,0.3l0.3,0.2l-0.6,0.3l-0.2,0.4
		c0,0.2,0.1,0.4,0.4,0.5l1.2,0.2l1.3-0.2c0.3-0.2,0.4-0.4,0.4-0.7c0-0.2-0.1-0.4-0.3-0.6c-0.2-0.2-0.5-0.2-0.8-0.3l-0.2,0l-0.6-0.2
		l0.1-0.1l0.2,0h0.2l1-0.3c0.3-0.2,0.4-0.5,0.4-0.8l-0.1-0.4h0.5l0.1-0.6l-2.3,0L83.9,36.4z M84.4,39.3l0.6,0.1l0.2,0.2l-0.2,0.2
		l-0.5,0L84,39.8l-0.2-0.2l0.2-0.2L84.4,39.3z M84.9,36.7l0.3,0.1l0.1,0.3l-0.2,0.4c-0.1,0.1-0.2,0.2-0.4,0.2l-0.3-0.1l-0.1-0.3
		l0.2-0.4C84.6,36.8,84.7,36.7,84.9,36.7z M82,36.2L81.5,39h0.9l0.5-2.9H82z M77.7,36.1l-0.5,0.1c-0.2,0-0.4,0.2-0.5,0.3l0-0.3h-0.9
		L75.2,39h0.9l0.3-1.9l0.5-0.3l0.4-0.1l0.2,0.1l0.1,0.2v0.1l0,0.2L77.2,39h1l0.3-1.8v-0.1l0-0.2l-0.2-0.6
		C78.1,36.2,77.9,36.1,77.7,36.1z M110.1,35.5h-0.9l-0.1,0.6h-0.7l-0.1,0.7h0.7l-0.2,1.1v0.2c0,0.4,0.1,0.6,0.2,0.7
		c0.2,0.2,0.4,0.2,0.7,0.2l0.4,0l0.5-0.1v-0.8l-0.3,0.1l-0.2,0l-0.2-0.1l-0.1-0.2l0-0.1v0l0.2-1h0.7l0.1-0.7h-0.7L110.1,35.5z
		 M112.8,36.1c-0.5,0-1,0.2-1.3,0.5c-0.4,0.3-0.5,0.7-0.5,1.1c0,0.4,0.1,0.7,0.4,1c0.3,0.2,0.7,0.4,1.1,0.4c0.5,0,1-0.2,1.3-0.5
		c0.4-0.3,0.5-0.7,0.5-1.2c0-0.3-0.1-0.7-0.4-1C113.6,36.2,113.2,36.1,112.8,36.1z M113.1,38.1c-0.1,0.2-0.3,0.3-0.5,0.3
		c-0.2,0-0.4-0.1-0.5-0.2l-0.2-0.5c0-0.3,0.1-0.5,0.2-0.7c0.1-0.2,0.3-0.3,0.6-0.3l0.4,0.2l0.2,0.5L113.1,38.1z M117.1,36.1h-0.4
		c-0.7,0-1.1,0.1-1.5,0.4c-0.4,0.3-0.6,0.7-0.6,1.2l0.2,0.7l0.5,0.5l0.5,0.2l0.8,0h0.5l0.5-0.1l0.7-4.2h-1L117.1,36.1z M116.8,38.4
		h-0.2l-0.7-0.2c-0.2-0.1-0.3-0.3-0.3-0.5c0-0.3,0.1-0.5,0.3-0.7c0.2-0.2,0.5-0.2,0.9-0.2h0.2L116.8,38.4z M88.6,36.1
		c-0.5,0-0.9,0.2-1.3,0.5c-0.4,0.3-0.5,0.7-0.5,1.1c0,0.4,0.1,0.7,0.4,1c0.3,0.2,0.7,0.4,1.1,0.4c0.6,0,1-0.2,1.3-0.5
		c0.4-0.3,0.5-0.7,0.5-1.2c0-0.4-0.1-0.7-0.4-1C89.5,36.2,89.1,36.1,88.6,36.1z M89,38.1c-0.2,0.2-0.4,0.3-0.6,0.3L88,38.2l-0.2-0.5
		c0-0.3,0.1-0.5,0.2-0.7c0.2-0.2,0.4-0.3,0.6-0.3c0.2,0,0.3,0.1,0.4,0.2l0.2,0.5L89,38.1z M123.1,38.2c-0.1-0.1-0.2-0.1-0.4-0.1
		c-0.2,0-0.3,0-0.4,0.1l-0.2,0.4l0.2,0.4l0.4,0.1l0.4-0.1l0.2-0.4L123.1,38.2z M120.2,36.1c-0.5,0-0.9,0.2-1.3,0.5
		c-0.4,0.3-0.5,0.7-0.5,1.1c0,0.4,0.1,0.7,0.4,1c0.3,0.2,0.7,0.4,1.1,0.4c0.6,0,1-0.2,1.3-0.5c0.4-0.3,0.5-0.7,0.5-1.2
		c0-0.4-0.1-0.7-0.4-1C121,36.2,120.7,36.1,120.2,36.1z M120.5,38.1c-0.2,0.2-0.4,0.3-0.6,0.3l-0.5-0.2l-0.2-0.5
		c0-0.3,0.1-0.5,0.2-0.7c0.2-0.2,0.4-0.3,0.6-0.3c0.2,0,0.3,0.1,0.4,0.2l0.2,0.5L120.5,38.1z M96.2,34.9c-0.4,0.1-0.7,0.3-1,0.5
		l-0.6,0.7c-0.1,0.2-0.2,0.6-0.2,0.9c0,0.6,0.2,1.1,0.6,1.4c0.5,0.4,1,0.6,1.6,0.6l0.8-0.1l0.7-0.2l0.2-1l-0.7,0.4l-0.8,0.2
		c-0.4,0-0.7-0.1-1-0.3c-0.2-0.2-0.4-0.5-0.4-0.8c0-0.5,0.2-0.9,0.6-1.2c0.5-0.3,0.9-0.5,1.6-0.5l1.1,0.1l0.1-0.8l-1.2-0.1
		L96.2,34.9z M105.1,36.1l-0.5,0.1c-0.2,0-0.4,0.2-0.5,0.3l0-0.3h-0.9l-0.5,2.9h0.9l0.3-1.9l0.4-0.3l0.4-0.1l0.2,0.1l0.1,0.2v0.1
		l0,0.2l-0.3,1.7h0.9l0.3-1.8v-0.1l0-0.2l-0.2-0.6C105.6,36.2,105.4,36.1,105.1,36.1z M91.2,38.1l-0.4,0.1l-0.2,0.4l0.2,0.4l0.4,0.1
		l0.4-0.1l0.2-0.4l-0.2-0.4C91.4,38.1,91.3,38.1,91.2,38.1z M100.9,36.1c-0.5,0-1,0.2-1.3,0.5c-0.4,0.3-0.5,0.7-0.5,1.1
		c0,0.4,0.1,0.7,0.4,1c0.2,0.2,0.6,0.4,1.1,0.4c0.6,0,1-0.2,1.4-0.5c0.4-0.4,0.5-0.7,0.5-1.2c0-0.4-0.2-0.7-0.5-1
		C101.7,36.2,101.4,36.1,100.9,36.1z M101.2,38.1c-0.2,0.2-0.4,0.3-0.6,0.3l-0.5-0.2l-0.2-0.5c0-0.3,0.1-0.5,0.2-0.7
		c0.2-0.2,0.4-0.3,0.6-0.3c0.2,0,0.3,0.1,0.5,0.2l0.2,0.5L101.2,38.1z"/>
	<path class="st2" d="M119.9,2.8l-1.3,2.7c-2.3-1.6-4.6-2.7-6.9-3.2c-3.8-0.7-7.3-0.4-10.7,0.9c-3.4,1.3-6.2,3.4-8.4,6.5L82,31.2H93
		l3.5-7.2l4.1,0l-3.5,7.2h11.1l9-17.9c0.5-0.9,1.2-1.6,2.1-1.8l2.5,0.2l-6.1,12.4c-0.4,0.9-0.5,1.8-0.4,2.7c0,0.5,0.2,0.8,0.3,1
		c0.9,2.1,2.7,3.4,5.4,3.9l7.2,0.2l5.7-11.1h-1.3l-2.7-0.4c-0.1-0.1-0.2-0.2-0.1-0.4L130,20l4.4-8.6h5.1l4.2-8.6H119.9z M105.7,14.2
		l-1.3,2.4h-4.2l0.5-1.1l0.5-1l1.8-3.1c0.8-0.9,1.9-1.1,3.3-0.8l0.3,0.3l0.1,0.7L105.7,14.2z M49.5,11.4h4.9H59L64.7,0H48
		c-2.3,0.3-4.3,1.2-6.2,2.7C39.9,4.2,38.5,6,37.6,8c-0.9,2-1.1,4.2-0.5,6.6c0.5,2,1.6,4,3.2,5.8c-4,0.2-7.9,0.2-11.9,0l0.7-1.4h-12
		l10.2,1.4L4.8,20.6l19.7,1.6L3.8,22.5l19.7,1.6L2.7,24.4L22.1,26L1.9,26.3l19.3,1.6L0.9,28.2l18.9,1.6L0,30l26.5,1.8l7.7,0.3
		c3.3,0.1,6,0,8-0.2c6.2-0.7,10.3-3.4,12.5-8c0.5-2.3,0.2-4.5-1-6.9C52.8,15.3,51.4,13.5,49.5,11.4z M33,11.2H20.9l11.3,1.6L33,11.2
		z M32,13.3h-12l11.3,1.4L32,13.3z M31,15.2H19l11.3,1.4L31,15.2z M30,17.2h-12l11.3,1.4L30,17.2z M21.9,33.4l0.8-1.6H10.6
		L21.9,33.4z M20.9,35.4l0.9-1.6H9.5L20.9,35.4z M20,37.3l0.7-1.5h-12L20,37.3z M19,39.1l0.7-1.4H7.6L19,39.1z M18.1,41l0.7-1.4H6.8
		L18.1,41z M93,2.8H81.6l-9.7,18.9c-0.5,0.6-1.1,0.9-1.7,0.9c-0.7,0-1.3-0.2-1.6-0.7c-0.4-0.5-0.4-1.1-0.1-1.7l8.7-17.4h-11l-9.5,19
		c-1.4,2.8-1.2,5.3,0.5,7.4c1.8,2.3,4.8,3.4,8.9,3.4c5,0,9-1.3,12.1-3.7c2-1.6,3.7-3.9,5.3-7.1L93,2.8z"/>
</g>
</svg>
